<?xml version="1.0" encoding="utf-8"?>
<!-- Generator: Adobe Illustrator 24.3.0, SVG Export Plug-In . SVG Version: 6.00 Build 0)  -->
<svg version="1.1" id="Layer_1" xmlns="http://www.w3.org/2000/svg" xmlns:xlink="http://www.w3.org/1999/xlink" x="0px" y="0px"
	 viewBox="0 0 400 400" style="enable-background:new 0 0 400 400;" xml:space="preserve">
<style type="text/css">
	.st0{fill:#0D289B;}
	.st1{fill:#FFFFFF;}
</style>
<g>
	<path class="st0" d="M366.07,280.82V119.45c0-9.55-5.1-18.38-13.37-23.15L212.96,15.62c-8.27-4.78-18.46-4.78-26.73,0L46.48,96.3
		c-8.27,4.78-13.37,13.6-13.37,23.15v161.37c0,9.55,5.1,18.38,13.37,23.15l139.75,80.68c8.27,4.78,18.46,4.78,26.73,0l139.75-80.68
		C360.98,299.2,366.07,290.37,366.07,280.82z"/>
	<g>
		<path class="st1" d="M294.87,212.3c0,38.23-25.89,71.53-62.93,80.98l-84.25,21.51v-34.32l76.04-19.41
			c22.29-5.71,37.87-25.75,37.87-48.76c0-4.99-2.27-9.62-6.24-12.7c-0.64-0.5-1.28-0.91-1.97-1.3c10.29-5.38,19.3-12.61,26.64-21.26
			C289.51,186.27,294.87,198.86,294.87,212.3z"/>
		<g>
			<path class="st1" d="M275.76,79.23c-12.11-9.4-27.58-12.61-42.47-8.82l-66.23,16.91c-35.07,8.95-59.58,40.48-59.58,76.68v161.07
				l33.27-8.51v-94.09l34.54-8.82l56.64-14.47c17.16-4.38,31.91-13.89,42.83-26.61c12.61-14.75,20.07-33.85,20.07-54.36
				C294.84,102.85,287.88,88.66,275.76,79.23z M167.06,181.42l-26.31,6.71v-24.12c0-20.99,14.19-39.26,34.54-44.47l66.23-16.91
				c1.33-0.33,2.69-0.5,4.02-0.5c3.52,0,6.96,1.16,9.81,3.38c3.96,3.08,6.21,7.71,6.21,12.7c0,23.01-15.58,43.05-37.87,48.74
				L167.06,181.42z"/>
		</g>
	</g>
	<g>
		<rect x="78.14" y="53.01" class="st1" width="31.69" height="31.69"/>
		<rect x="82.1" y="56.97" class="st0" width="23.77" height="23.77"/>
	</g>
	<g>
		<rect x="72.6" y="92.62" class="st1" width="31.69" height="31.69"/>
		<rect x="76.56" y="96.58" class="st0" width="23.77" height="23.77"/>
	</g>
	<g>
		<rect x="33.11" y="80.74" class="st1" width="31.69" height="31.69"/>
		<rect x="37.07" y="84.7" class="st0" width="23.77" height="23.77"/>
	</g>
	<rect x="46.06" y="49.45" class="st0" width="21.39" height="21.39"/>
	<rect x="85.07" y="27.86" class="st0" width="17.83" height="17.83"/>
	<g>
		<rect x="114.78" y="30.78" class="st1" width="23.77" height="23.77"/>
		<rect x="117.75" y="33.75" class="st0" width="17.83" height="17.83"/>
	</g>
	<rect x="51.93" y="18.95" class="st0" width="17.83" height="17.83"/>
</g>
</svg>
